<svg width="32" height="32" viewBox="0 0 32 32" fill="none" xmlns="http://www.w3.org/2000/svg">
<path fill-rule="evenodd" clip-rule="evenodd" d="M27.0997 4.16419C27.4439 4.01881 27.8208 3.96867 28.1909 4.01899C28.561 4.0693 28.9109 4.21824 29.2042 4.4503C29.4975 4.68235 29.7235 4.98905 29.8586 5.33845C29.9936 5.68785 30.0329 6.0672 29.9723 6.437L26.8127 25.6664C26.5062 27.5212 24.4778 28.585 22.7824 27.661C21.3642 26.888 19.2578 25.6971 17.3632 24.4545C16.4158 23.8325 13.514 21.8406 13.8706 20.4233C14.1771 19.2114 19.053 14.6574 21.8393 11.9499C22.9329 10.8862 22.4341 10.2725 21.1427 11.251C17.9357 13.6803 12.7868 17.3747 11.0844 18.4147C9.58259 19.3316 8.79966 19.4882 7.86348 19.3316C6.15552 19.0465 4.57154 18.6048 3.27873 18.0666C1.53176 17.3398 1.61674 14.93 3.27733 14.2283L27.0997 4.16419Z" fill="black"/>
</svg>
